<?xml version="1.0" encoding="UTF-8" standalone="no"?>
<svg
   xmlns:dc="http://purl.org/dc/elements/1.1/"
   xmlns:cc="http://creativecommons.org/ns#"
   xmlns:rdf="http://www.w3.org/1999/02/22-rdf-syntax-ns#"
   xmlns:svg="http://www.w3.org/2000/svg"
   xmlns="http://www.w3.org/2000/svg"
   xmlns:sodipodi="http://sodipodi.sourceforge.net/DTD/sodipodi-0.dtd"
   xmlns:inkscape="http://www.inkscape.org/namespaces/inkscape"
   version="1.1"
   id="svg2"
   viewBox="0 0 37.204724 44.291341"
   height="12.5mm"
   width="10.5mm"
   inkscape:version="0.91 r13725"
   sodipodi:docname="ci.svg"
   inkscape:export-filename="/Users/sina/Desktop/CI2.png"
   inkscape:export-xdpi="90"
   inkscape:export-ydpi="90"
   style="shape-rendering:crispEdges">
  <sodipodi:namedview
     pagecolor="#ffffff"
     bordercolor="#666666"
     borderopacity="1"
     objecttolerance="10"
     gridtolerance="10"
     guidetolerance="10"
     inkscape:pageopacity="0"
     inkscape:pageshadow="2"
     inkscape:window-width="1280"
     inkscape:window-height="751"
     id="namedview14"
     showgrid="false"
     inkscape:zoom="5.3528148"
     inkscape:cx="53.149606"
     inkscape:cy="41.944287"
     inkscape:window-x="0"
     inkscape:window-y="1"
     inkscape:window-maximized="1"
     inkscape:current-layer="svg2" />
  <defs
     id="defs4" />
  <metadata
     id="metadata7">
    <rdf:RDF>
      <cc:Work
         rdf:about="">
        <dc:format>image/svg+xml</dc:format>
        <dc:type
           rdf:resource="http://purl.org/dc/dcmitype/StillImage" />
        <dc:title></dc:title>
      </cc:Work>
    </rdf:RDF>
  </metadata>
  <g
     transform="translate(-68.045144,-980.2568)"
     id="layer1">
    <text
       id="text3366"
       y="358.4549"
       x="306.69937"
       style="font-style:normal;font-weight:normal;font-size:40px;line-height:125%;font-family:sans-serif;letter-spacing:0px;word-spacing:0px;fill:#000000;fill-opacity:1;stroke:none;stroke-width:1px;stroke-linecap:butt;stroke-linejoin:miter;stroke-opacity:1"
       xml:space="preserve"
       sodipodi:linespacing="125%"><tspan
         y="358.4549"
         x="306.69937"
         id="tspan3368" /></text>
    <path
       id="text3578"
       d="m 80.547162,980.71339 0,2.01263 0.462127,0 c 0.872671,0 1.574792,0.0873 2.105239,0.26224 0.530448,0.17496 0.940528,0.44673 1.231419,0.81605 0.290891,0.34991 0.479264,0.79717 0.564821,1.34146 0.102667,0.54428 0.154041,1.19584 0.154041,1.95394 -1.368898,0 -2.720845,0.13589 -4.05552,0.40804 -1.334676,0.25269 -2.609562,0.66035 -3.824459,1.22406 -1.214898,0.54429 -2.344222,1.24447 -3.388007,2.09975 -1.026673,0.85528 -1.924812,1.87585 -2.694817,3.06156 -0.752894,1.16634 -1.343702,2.50722 -1.771483,4.0234 -0.427781,1.49682 -0.640925,3.17878 -0.640925,5.04488 0,2.1577 0.350143,4.1303 1.051703,5.9188 0.701561,1.7883 1.711011,3.3246 3.028576,4.6075 1.334676,1.2634 2.96062,2.2453 4.877078,2.9451 1.916458,0.6998 4.080919,1.0489 6.493603,1.0489 l 0.924251,0 c -0.05133,0.9136 -0.162645,1.6822 -0.333757,2.3043 -0.154001,0.622 -0.393749,1.1269 -0.718862,1.5156 -0.325114,0.3694 -0.752318,0.6322 -1.282767,0.7876 -0.513336,0.1556 -1.155518,0.2329 -1.925524,0.2329 l -0.513474,0 0,2.0411 c 1.38601,-0.078 2.695145,-0.1362 3.927153,-0.1751 1.249121,-0.039 2.369882,-0.058 3.362334,-0.058 0.83845,0 1.873587,0.019 3.105596,0.058 1.24912,0.039 2.618191,0.097 4.106868,0.1751 l 0,-2.0411 -0.539146,0 c -0.787116,0 -1.445507,-0.097 -1.975956,-0.2916 -0.530448,-0.1943 -0.95857,-0.4859 -1.283683,-0.8747 -0.325113,-0.3888 -0.564861,-0.8846 -0.718862,-1.4872 -0.13689,-0.6221 -0.205389,-1.351 -0.205389,-2.1869 1.368898,0 2.720846,-0.1259 4.055521,-0.3787 1.334677,-0.2721 2.609561,-0.6806 3.82446,-1.225 1.214897,-0.5637 2.335659,-1.2728 3.362339,-2.1281 1.04378,-0.8553 1.94192,-1.8659 2.69482,-3.0323 0.29661,-0.4567 0.56013,-0.9439 0.80596,-1.4468 l -4.87983,0 c -0.485827,0.9581 -1.076347,1.7927 -1.7779,2.4967 -1.026674,1.0303 -2.250185,1.7979 -3.670417,2.3033 -1.403122,0.486 -2.933963,0.729 -4.593752,0.729 -0.102667,-6.1815 -0.14548,-11.3625 -0.128368,-15.54176 0.03422,-4.17935 0.07703,-7.35697 0.128368,-9.53413 l 0.949008,0 c 0.462005,0 1.035687,0.0573 1.720136,0.17424 0.701561,0.0972 1.437012,0.30145 2.207018,0.61252 0.770005,0.31099 1.539707,0.75829 2.309712,1.34146 0.770005,0.56366 1.463563,1.31241 2.079567,2.24553 0.241584,0.36587 0.461061,0.77238 0.668432,1.20111 l 5.398806,0 c -0.69263,-1.61467 -1.65193,-3.00866 -2.88462,-4.17566 -1.31756,-1.28292 -2.934948,-2.27465 -4.851406,-2.97444 -1.916458,-0.69979 -4.080919,-1.04896 -6.493603,-1.04896 l -0.949924,0 c 0.05134,-0.83587 0.136957,-1.536 0.256736,-2.09974 0.13689,-0.56372 0.35095,-1.01098 0.641841,-1.34144 0.290891,-0.33045 0.684763,-0.56354 1.180988,-0.69961 0.513337,-0.15551 1.171728,-0.2329 1.975956,-0.2329 l 0.436452,0 0,-2.01263 c -1.334676,0.0777 -2.583874,0.13626 -3.747438,0.17513 -1.163563,0.0389 -2.23295,0.0587 -3.20829,0.0587 -1.129342,0 -2.284352,-0.0198 -3.465027,-0.0587 -1.180676,-0.0389 -2.369937,-0.0974 -3.567723,-0.17513 z m 4.671689,9.01052 c 0.102668,6.18151 0.136918,11.36149 0.102696,15.54079 -0.0171,4.1794 -0.05136,7.3579 -0.102696,9.5351 l -0.949924,0 c -0.479115,0 -1.060444,-0.049 -1.744893,-0.1458 -0.684449,-0.1166 -1.412255,-0.3309 -2.182261,-0.6419 -0.770005,-0.311 -1.539707,-0.7484 -2.309712,-1.3121 -0.770006,-0.5831 -1.462647,-1.3409 -2.078651,-2.2739 -0.616004,-0.9331 -1.129749,-2.0607 -1.540419,-3.3825 -0.393558,-1.3413 -0.607619,-2.9351 -0.641841,-4.7818 -0.03422,-2.1578 0.231213,-4.02416 0.795883,-5.59867 0.56467,-1.57454 1.36006,-2.87668 2.386733,-3.90693 1.026673,-1.03026 2.241622,-1.78891 3.644743,-2.27488 1.420233,-0.50541 2.960553,-0.75741 4.620342,-0.75741 z"
       style="font-style:normal;font-variant:normal;font-weight:normal;font-stretch:normal;font-size:119.34281921px;line-height:125%;font-family:'Iowan Old Style';-inkscape-font-specification:'Iowan Old Style, Normal';text-align:start;letter-spacing:0px;word-spacing:0px;writing-mode:lr-tb;text-anchor:start;fill:#008080;fill-opacity:1;stroke:none;stroke-width:1px;stroke-linecap:butt;stroke-linejoin:miter;stroke-opacity:1"
       inkscape:connector-curvature="0"
       inkscape:export-xdpi="40.654556"
       inkscape:export-ydpi="40.654556" />
    <rect
       y="310.82913"
       x="86.448158"
       height="211.31772"
       width="219.64235"
       id="rect3357"
       style="fill:none;fill-opacity:1" />
    <rect
       y="943.58826"
       x="6.8550453"
       height="162.6506"
       width="121.66777"
       id="rect3359"
       style="fill:none;fill-opacity:1" />
    <rect
       y="945.50934"
       x="-148.75165"
       height="147.92239"
       width="323.38013"
       id="rect3361"
       style="fill:none;fill-opacity:1" />
    <rect
       y="924.37756"
       x="-61.663132"
       height="169.05417"
       width="290.72195"
       id="rect3371"
       style="fill:none;fill-opacity:1" />
    <rect
       y="936.54431"
       x="-7.8731651"
       height="149.84348"
       width="138.9574"
       id="rect3393"
       style="fill:none;fill-opacity:1" />
  </g>
</svg>
